<?xml version="1.0" encoding="utf-8"?>
<?xml-stylesheet type="text/xsl" href="rss1.xsl"?>
<rss version="2.0" xmlns:atom="http://www.w3.org/2005/Atom" xmlns:content="http://purl.org/rss/1.0/modules/content/" xmlns:dc="http://purl.org/dc/elements/1.1/" xmlns:media="http://search.yahoo.com/mrss/">
<channel>
 <title>Getty</title>
 <link>http://www.gettyimg.com/</link>
 <atom:link href="http://www.gettyimg.com/" rel="self" type="application/rss+xml" />

 
                <item>
                <title><![CDATA[【MASTER &amp; MASTER RIP】MASTER - TXT DEJAVU MASTER LOGO 1080p H264 AAC2.0]]></title>
                <link><![CDATA[https://sharemania.us/threads/txt-dejavu-master-logo-1080p-h264-aac2-0.241906/]]></link>
                <description><![CDATA[<article>
<blockquote class="messageText SelectQuoteContainer ugc baseHtml">
<div style="text-align: center"><img src="https://i.imgur.com/tj1RU79.jpeg" class="bbCodeImage LbImage" alt="[​IMG]" data-url="https://i.imgur.com/tj1RU79.jpeg" style=""> <br>
<br>
<div class="ToggleTriggerAnchor bbCodeSpoilerContainer">
<button type="button" class="button bbCodeSpoilerButton ToggleTrigger Tooltip JsOnly" data-target="> .SpoilerTarget"><span>Spoiler: <span class="SpoilerTitle">MediaInfo</span></span></button>
<div class="SpoilerTarget bbCodeSpoilerText"><b>General</b><br>
Complete name : TXT DEJAVU MASTER LOGO 1080p H264 AAC2.0.mp4<br>
Format : MPEG-4<br>
Format profile : Base Media / Version 2<br>
Codec ID : mp42 (mp42/mp41)<br>
File size : 1.35 GiB<br>
Duration : 4 min 0 s<br>
Overall bit rate mode : Variable<br>
Overall bit rate : 48.3 Mb/s<br>
Frame rate : 24.000 FPS<br>
Encoded date : 2024-04-02 06:36:30 UTC<br>
Tagged date : 2024-04-02 06:36:42 UTC<br>
TIM : 00:00:00:00<br>
TSC : 24<br>
TSZ : 1<br>
<br>
<b>Video</b><br>
ID : 1<br>
Format : AVC<br>
Format/Info : Advanced Video Codec<br>
Format profile : Main@L4.1<br>
Format settings : CABAC / 4 Ref Frames<br>
Format settings, CABAC : Yes<br>
Format settings, Reference frames : 4 frames<br>
Codec ID : avc1<br>
Codec ID/Info : Advanced Video Coding<br>
Duration : 4 min 0 s<br>
Bit rate : 47.9 Mb/s<br>
Width : 1 920 pixels<br>
Height : 752 pixels<br>
Display aspect ratio : 2.553<br>
Frame rate mode : Constant<br>
Frame rate : 24.000 FPS<br>
Color space : YUV<br>
Chroma subsampling : 4:2:0<br>
Bit depth : 8 bits<br>
Scan type : Progressive<br>
Bits/(Pixel*Frame) : 1.383<br>
Stream size : 1.34 GiB (99%)<br>
Language : English<br>
Encoded date : 2024-04-02 06:36:30 UTC<br>
Tagged date : 2024-04-02 06:36:30 UTC<br>
Color range : Limited<br>
Color primaries : BT.709<br>
Transfer characteristics : BT.709<br>
Matrix coefficients : BT.709<br>
Codec configuration box : avcC<br>
<br>
<b>Audio</b><br>
ID : 2<br>
Format : AAC LC<br>
Format/Info : Advanced Audio Codec Low Complexity<br>
Codec ID : mp4a-40-2<br>
Duration : 4 min 0 s<br>
Source duration : 4 min 0 s<br>
Bit rate mode : Variable<br>
Bit rate : 317 kb/s<br>
Maximum bit rate : 520 kb/s<br>
Channel(s) : 2 channels<br>
Channel layout : L R<br>
Sampling rate : 48.0 kHz<br>
Frame rate : 46.875 FPS (1024 SPF)<br>
Compression mode : Lossy<br>
Stream size : 9.10 MiB (1%)<br>
Source stream size : 9.10 MiB (1%)<br>
Language : English<br>
Encoded date : 2024-04-02 06:36:30 UTC<br>
Tagged date : 2024-04-02 06:36:30 UTC</div>
</div><br>
<div class="bbCodeBlock bbCodeVfcHH HiddenContent">
<div class="attribution type">Hidden Content:</div>
<blockquote>You must reply before you can see the hidden data contained here.</blockquote>
</div></div>
<div class="messageTextEndMarker">&nbsp;</div>
</blockquote>
</article>]]></description>
                <author><![CDATA[von_3649]]></author>
                </item>

                
                <item>
                <title><![CDATA[【Albums (lossless)】FLAC - Pabllo Vittar - Batidão Tropical Vol. 2 | Qobuz Hi-Res | .FLAC 24bits ／ 48.0kHz]]></title>
                <link><![CDATA[https://sharemania.us/threads/pabllo-vittar-batid%C3%A3o-tropical-vol-2-qobuz-hi-res-flac-24bits-%EF%BC%8F-48-0khz.241905/]]></link>
                <description><![CDATA[<article>
<blockquote class="messageText SelectQuoteContainer ugc baseHtml">
<div style="text-align: center"><img src="https://i.imgur.com/Ye2TH9I.jpeg" class="bbCodeImage LbImage" alt="[​IMG]" data-url="https://i.imgur.com/Ye2TH9I.jpeg" style=""><br>
<br>
<div class="ToggleTriggerAnchor bbCodeSpoilerContainer">
<button type="button" class="button bbCodeSpoilerButton ToggleTrigger Tooltip JsOnly" data-target="> .SpoilerTarget"><span>Spoiler: <span class="SpoilerTitle">Tracklist</span></span></button>
<div class="SpoilerTarget bbCodeSpoilerText"><img src="https://imgbbupload.com/i/8VlBL.png" class="bbCodeImage LbImage" alt="[​IMG]" data-url="https://imgbbupload.com/i/8VlBL.png" style=""></div>
</div><br>
<span style="font-family: 'Times New Roman'"><span style="font-size: 15px">
<div class="bbCodeBlock bbCodeVfcHH HiddenContent">
<div class="attribution type">Hidden Content:</div>
<blockquote>You must reply before you can see the hidden data contained here.</blockquote>
</div></span></span>​</div>
<div class="messageTextEndMarker">&nbsp;</div>
</blockquote>
</article>]]></description>
                <author><![CDATA[Nuric]]></author>
                </item>

                
                <item>
                <title><![CDATA[【HD Live Performances】HDTV - Various Artists - V Festival 2008 HDTV 1080p H264]]></title>
                <link><![CDATA[https://sharemania.us/threads/various-artists-v-festival-2008-hdtv-1080p-h264.241907/]]></link>
                <description><![CDATA[<article>
<blockquote class="messageText SelectQuoteContainer ugc baseHtml">
Thanks
<div class="messageTextEndMarker">&nbsp;</div>
</blockquote>
</article>]]></description>
                <author><![CDATA[olobersykes99]]></author>
                </item>

                </channel></rss>